<?xml version="1.0" encoding="utf-8"?>
<!-- Generator: Adobe Illustrator 16.0.0, SVG Export Plug-In . SVG Version: 6.00 Build 0)  -->
<!DOCTYPE svg PUBLIC "-//W3C//DTD SVG 1.1//EN" "http://www.w3.org/Graphics/SVG/1.1/DTD/svg11.dtd">
<svg version="1.1" xmlns="http://www.w3.org/2000/svg" xmlns:xlink="http://www.w3.org/1999/xlink" x="0px" y="0px"
	 width="110.25px" height="143.75px" viewBox="0 0 110.25 143.75" enable-background="new 0 0 110.25 143.75" xml:space="preserve">
<g id="Layer_6">
	<g>
		<rect x="34.466" y="115.966" width="2.721" height="2.719"/>
		<rect x="34.466" y="115.966" width="2.721" height="2.719"/>
		<circle fill-rule="evenodd" clip-rule="evenodd" cx="35.827" cy="117.325" r="1.359"/>
		<circle cx="35.827" cy="117.325" r="1.359"/>
		<circle fill-rule="evenodd" clip-rule="evenodd" cx="35.827" cy="127.247" r="1.359"/>
		<circle cx="35.827" cy="127.247" r="1.359"/>
		<rect x="5.667" y="94.366" width="2.72" height="2.719"/>
		<rect x="5.667" y="94.366" width="2.72" height="2.719"/>
		<circle fill-rule="evenodd" clip-rule="evenodd" cx="7.026" cy="95.726" r="1.359"/>
		<circle cx="7.026" cy="95.726" r="1.359"/>
		<circle fill-rule="evenodd" clip-rule="evenodd" cx="7.026" cy="105.646" r="1.358"/>
		<circle cx="7.026" cy="105.646" r="1.358"/>
		<rect x="5.667" y="15.165" width="2.72" height="2.721"/>
		<rect x="5.667" y="15.165" width="2.72" height="2.721"/>
		<circle fill-rule="evenodd" clip-rule="evenodd" cx="7.026" cy="16.525" r="1.36"/>
		<circle cx="7.026" cy="16.525" r="1.36"/>
		<circle fill-rule="evenodd" clip-rule="evenodd" cx="7.026" cy="26.447" r="1.36"/>
		<circle cx="7.026" cy="26.447" r="1.36"/>
		<rect x="5.667" y="58.365" width="2.72" height="2.72"/>
		<rect x="5.667" y="58.365" width="2.72" height="2.72"/>
		<circle fill-rule="evenodd" clip-rule="evenodd" cx="7.026" cy="59.725" r="1.36"/>
		<circle cx="7.026" cy="59.725" r="1.36"/>
		<circle fill-rule="evenodd" clip-rule="evenodd" cx="7.026" cy="69.647" r="1.36"/>
		<circle cx="7.026" cy="69.647" r="1.36"/>
		<circle fill-rule="evenodd" clip-rule="evenodd" cx="57.427" cy="117.325" r="1.107"/>
		<circle cx="57.427" cy="117.325" r="1.107"/>
		<rect x="56.319" y="116.218" width="2.213" height="2.215"/>
		<rect x="56.319" y="116.218" width="2.213" height="2.215"/>
		<circle fill-rule="evenodd" clip-rule="evenodd" cx="57.427" cy="110.126" r="1.107"/>
		<circle cx="57.427" cy="110.126" r="1.107"/>
		<circle fill-rule="evenodd" clip-rule="evenodd" cx="57.427" cy="102.925" r="1.107"/>
		<circle cx="57.427" cy="102.925" r="1.107"/>
		<circle fill-rule="evenodd" clip-rule="evenodd" cx="57.427" cy="95.726" r="1.107"/>
		<circle cx="57.427" cy="95.726" r="1.107"/>
		<circle fill-rule="evenodd" clip-rule="evenodd" cx="57.427" cy="88.525" r="1.106"/>
		<circle cx="57.427" cy="88.525" r="1.106"/>
		<circle fill-rule="evenodd" clip-rule="evenodd" cx="57.427" cy="81.325" r="1.107"/>
		<circle cx="57.427" cy="81.325" r="1.107"/>
		<circle fill-rule="evenodd" clip-rule="evenodd" cx="57.427" cy="74.125" r="1.108"/>
		<circle cx="57.427" cy="74.125" r="1.108"/>
		<circle fill-rule="evenodd" clip-rule="evenodd" cx="57.427" cy="66.925" r="1.108"/>
		<circle cx="57.427" cy="66.925" r="1.108"/>
		<circle fill-rule="evenodd" clip-rule="evenodd" cx="57.427" cy="59.725" r="1.108"/>
		<circle cx="57.427" cy="59.725" r="1.108"/>
		<circle fill-rule="evenodd" clip-rule="evenodd" cx="57.427" cy="52.525" r="1.108"/>
		<circle cx="57.427" cy="52.525" r="1.108"/>
		<circle fill-rule="evenodd" clip-rule="evenodd" cx="57.427" cy="45.325" r="1.108"/>
		<circle cx="57.427" cy="45.325" r="1.108"/>
		<circle fill-rule="evenodd" clip-rule="evenodd" cx="57.427" cy="38.125" r="1.108"/>
		<circle cx="57.427" cy="38.125" r="1.108"/>
		<circle fill-rule="evenodd" clip-rule="evenodd" cx="57.427" cy="30.925" r="1.108"/>
		<circle cx="57.427" cy="30.925" r="1.108"/>
		<circle fill-rule="evenodd" clip-rule="evenodd" cx="57.427" cy="23.725" r="1.108"/>
		<circle cx="57.427" cy="23.725" r="1.108"/>
		<circle fill-rule="evenodd" clip-rule="evenodd" cx="57.427" cy="16.525" r="1.108"/>
		<circle cx="57.427" cy="16.525" r="1.108"/>
		<circle fill-rule="evenodd" clip-rule="evenodd" cx="100.627" cy="117.325" r="1.107"/>
		<circle cx="100.627" cy="117.325" r="1.107"/>
		<circle fill-rule="evenodd" clip-rule="evenodd" cx="100.627" cy="110.126" r="1.107"/>
		<circle cx="100.627" cy="110.126" r="1.107"/>
		<circle fill-rule="evenodd" clip-rule="evenodd" cx="100.627" cy="102.925" r="1.107"/>
		<circle cx="100.627" cy="102.925" r="1.107"/>
		<circle fill-rule="evenodd" clip-rule="evenodd" cx="100.627" cy="95.726" r="1.107"/>
		<circle cx="100.627" cy="95.726" r="1.107"/>
		<circle fill-rule="evenodd" clip-rule="evenodd" cx="100.627" cy="88.525" r="1.106"/>
		<circle cx="100.627" cy="88.525" r="1.106"/>
		<circle fill-rule="evenodd" clip-rule="evenodd" cx="100.627" cy="81.325" r="1.107"/>
		<circle cx="100.627" cy="81.325" r="1.107"/>
		<circle fill-rule="evenodd" clip-rule="evenodd" cx="100.627" cy="74.125" r="1.108"/>
		<circle cx="100.627" cy="74.125" r="1.108"/>
		<circle fill-rule="evenodd" clip-rule="evenodd" cx="100.627" cy="66.925" r="1.108"/>
		<circle cx="100.627" cy="66.925" r="1.108"/>
		<circle fill-rule="evenodd" clip-rule="evenodd" cx="100.627" cy="59.725" r="1.108"/>
		<circle cx="100.627" cy="59.725" r="1.108"/>
		<circle fill-rule="evenodd" clip-rule="evenodd" cx="100.627" cy="52.525" r="1.108"/>
		<circle cx="100.627" cy="52.525" r="1.108"/>
		<circle fill-rule="evenodd" clip-rule="evenodd" cx="100.627" cy="45.325" r="1.108"/>
		<circle cx="100.627" cy="45.325" r="1.108"/>
		<circle fill-rule="evenodd" clip-rule="evenodd" cx="100.627" cy="38.125" r="1.108"/>
		<circle cx="100.627" cy="38.125" r="1.108"/>
		<circle fill-rule="evenodd" clip-rule="evenodd" cx="100.627" cy="30.925" r="1.108"/>
		<circle cx="100.627" cy="30.925" r="1.108"/>
		<circle fill-rule="evenodd" clip-rule="evenodd" cx="100.627" cy="23.725" r="1.108"/>
		<circle cx="100.627" cy="23.725" r="1.108"/>
		<circle fill-rule="evenodd" clip-rule="evenodd" cx="100.627" cy="16.525" r="1.108"/>
		<circle cx="100.627" cy="16.525" r="1.108"/>
		<rect x="41.847" y="15.345" width="2.36" height="2.36"/>
		<rect x="41.847" y="15.345" width="2.36" height="2.36"/>
		<circle fill-rule="evenodd" clip-rule="evenodd" cx="43.027" cy="16.525" r="1.18"/>
		<circle cx="43.027" cy="16.525" r="1.18"/>
		<circle fill-rule="evenodd" clip-rule="evenodd" cx="21.427" cy="16.525" r="1.18"/>
		<circle cx="21.427" cy="16.525" r="1.18"/>
		<circle fill-rule="evenodd" clip-rule="evenodd" cx="43.027" cy="23.726" r="1.18"/>
		<circle cx="43.027" cy="23.726" r="1.18"/>
		<circle fill-rule="evenodd" clip-rule="evenodd" cx="21.427" cy="23.726" r="1.18"/>
		<circle cx="21.427" cy="23.726" r="1.18"/>
		<circle fill-rule="evenodd" clip-rule="evenodd" cx="43.027" cy="30.925" r="1.18"/>
		<circle cx="43.027" cy="30.925" r="1.18"/>
		<circle fill-rule="evenodd" clip-rule="evenodd" cx="21.427" cy="30.925" r="1.18"/>
		<circle cx="21.427" cy="30.925" r="1.18"/>
		<circle fill-rule="evenodd" clip-rule="evenodd" cx="43.027" cy="38.125" r="1.18"/>
		<circle cx="43.027" cy="38.125" r="1.18"/>
		<circle fill-rule="evenodd" clip-rule="evenodd" cx="21.427" cy="38.125" r="1.18"/>
		<circle cx="21.427" cy="38.125" r="1.18"/>
		<rect x="41.847" y="58.545" width="2.36" height="2.36"/>
		<rect x="41.847" y="58.545" width="2.36" height="2.36"/>
		<circle fill-rule="evenodd" clip-rule="evenodd" cx="43.027" cy="59.726" r="1.18"/>
		<circle cx="43.027" cy="59.726" r="1.18"/>
		<circle fill-rule="evenodd" clip-rule="evenodd" cx="21.427" cy="59.726" r="1.18"/>
		<circle cx="21.427" cy="59.726" r="1.18"/>
		<circle fill-rule="evenodd" clip-rule="evenodd" cx="43.027" cy="66.925" r="1.18"/>
		<circle cx="43.027" cy="66.925" r="1.18"/>
		<circle fill-rule="evenodd" clip-rule="evenodd" cx="21.427" cy="66.925" r="1.18"/>
		<circle cx="21.427" cy="66.925" r="1.18"/>
		<circle fill-rule="evenodd" clip-rule="evenodd" cx="43.027" cy="74.125" r="1.18"/>
		<circle cx="43.027" cy="74.125" r="1.18"/>
		<circle fill-rule="evenodd" clip-rule="evenodd" cx="21.427" cy="74.125" r="1.18"/>
		<circle cx="21.427" cy="74.125" r="1.18"/>
		<circle fill-rule="evenodd" clip-rule="evenodd" cx="43.027" cy="81.325" r="1.18"/>
		<circle cx="43.027" cy="81.325" r="1.18"/>
		<circle fill-rule="evenodd" clip-rule="evenodd" cx="21.427" cy="81.325" r="1.18"/>
		<circle cx="21.427" cy="81.325" r="1.18"/>
		<path d="M109.163,1.356v141.17H1.023V1.356H109.163 M110.163,0.356h-1H1.023h-1v1v141.17v1h1h108.14h1v-1V1.356V0.356z"/>
	</g>
</g>
<g id="borders_1_">
</g>
</svg>
